<?xml version="1.0" encoding="UTF-8"?>
<svg width="20px" height="20px" viewBox="0 0 20 20" version="1.1" xmlns="http://www.w3.org/2000/svg" xmlns:xlink="http://www.w3.org/1999/xlink">
    <!-- Generator: Sketch 58 (84663) - https://sketch.com -->
    <title>Icon/채널권한설정/purple/소형@2x</title>
    <desc>Created with Sketch.</desc>
    <g id="Icon/채널권한설정/purple/소형" stroke="none" stroke-width="1" fill="none" fill-rule="evenodd">
        <path d="M16.5398459,9.82931854 L16.5397575,11.3821147 C16.8906193,11.5022055 17.213382,11.6799079 17.4959273,11.9034859 L18.8152824,11.1410969 L19.88133,12.9875455 L18.6151118,13.7188883 C18.6524155,13.9081188 18.6719411,14.1034585 18.6719411,14.3032148 C18.6719411,14.501552 18.652692,14.695535 18.6159043,14.8835072 L19.88133,15.6149933 L18.8152824,17.4614418 L17.4978843,16.701394 C17.2148727,16.9257007 16.8914296,17.1039469 16.5397575,17.224315 L16.5398459,18.7771112 L14.4077508,18.7771112 L14.4078392,17.224315 C14.0561671,17.1039469 13.732724,16.9257007 13.4497124,16.701394 L12.1323143,17.4614418 L11.0662667,15.6149933 L12.3316924,14.8835072 C12.2949047,14.695535 12.2756556,14.501552 12.2756556,14.3032148 C12.2756556,14.1034585 12.2951812,13.9081188 12.3324848,13.7188883 L11.0662667,12.9875455 L12.1323143,11.1410969 L13.4516694,11.9034859 C13.7342147,11.6799079 14.0569774,11.5022055 14.4078392,11.3821147 L14.4077508,9.82931854 L16.5398459,9.82931854 Z M15.4737983,12.8293185 C14.6636703,12.8293185 14.0069317,13.4892044 14.0069317,14.3032148 C14.0069317,15.1172253 14.6636703,15.7771112 15.4737983,15.7771112 C16.2839264,15.7771112 16.940665,15.1172253 16.940665,14.3032148 C16.940665,13.4892044 16.2839264,12.8293185 15.4737983,12.8293185 Z M9.68474077,8.71084446 C10.5136028,8.71084446 11.2482534,9.11421134 11.7031019,9.73535442 C10.4920093,10.7394472 9.65797836,12.3957961 9.52046636,14.3032 L3.5,14.3032148 C2.11928813,14.3032148 1,13.1839267 1,11.8032148 L1,11.2108445 C1,9.83013259 2.11928813,8.71084446 3.5,8.71084446 L9.68474077,8.71084446 Z M6.84638281,2 C8.22210236,2 9.3373434,3.11524104 9.3373434,4.49096058 C9.3373434,5.86668012 8.22210236,6.98192116 6.84638281,6.98192116 C5.47066327,6.98192116 4.35542223,5.86668012 4.35542223,4.49096058 C4.35542223,3.11524104 5.47066327,2 6.84638281,2 Z" id="Combined-Shape" fill="#5C3FBF"></path>
    </g>
</svg>