<?xml version="1.0" encoding="UTF-8"?>
<svg width="20px" height="20px" viewBox="0 0 20 20" version="1.1" xmlns="http://www.w3.org/2000/svg" xmlns:xlink="http://www.w3.org/1999/xlink">
    <!-- Generator: Sketch 58 (84663) - https://sketch.com -->
    <title>Icon/채널설정/purple/소형 Copy@2x</title>
    <desc>Created with Sketch.</desc>
    <g id="Icon/채널설정/purple/소형-Copy" stroke="none" stroke-width="1" fill="none" fill-rule="evenodd">
        <path d="M15.5216161,10 L15.5219825,11.5597175 C15.8675556,11.676299 16.1863827,11.8468901 16.4673211,12.0608596 L17.7827869,11.302847 L18.869602,13.185266 L17.6356919,13.8984923 C17.6747755,14.0910493 17.6952463,14.2899408 17.6952463,14.4933941 C17.6952463,14.6957295 17.6749998,14.8935531 17.6363344,15.0851213 L18.869602,15.7962411 L17.7827869,17.6786601 L16.4722517,16.9221659 C16.1901151,17.1378987 15.8695789,17.3098066 15.5219825,17.4270707 L15.5216161,18.9867882 L13.3479859,18.9867882 L13.3474783,17.4270231 C12.9999021,17.3097485 12.6793857,17.1378357 12.3972671,16.9221024 L11.0868151,17.6786601 L10,15.7962411 L11.2332633,15.0850999 C11.1946007,14.8935384 11.1743557,14.695722 11.1743557,14.4933941 C11.1743557,14.2899484 11.194825,14.0910641 11.2339058,13.8985138 L10,13.185266 L11.0868151,11.302847 L12.4021974,12.0609231 C12.6831179,11.846953 13.0019253,11.6763571 13.3474783,11.5597651 L13.3479859,10 L15.5216161,10 Z M14.4348008,13 C13.6063738,13 12.9348008,13.6686153 12.9348008,14.4933941 C12.9348008,15.3181729 13.6063738,15.9867882 14.4348008,15.9867882 C15.2632282,15.9867882 15.9348008,15.3181729 15.9348008,14.4933941 C15.9348008,13.6686153 15.2632282,13 14.4348008,13 Z M7.93558185,1.66666667 L14,5.34649669 L14,8.90176935 L11.7080571,8.90176935 L8,14.6666667 L2,14.6666667 L2,5.34649669 L7.93558185,1.66666667 Z" id="Combined-Shape" fill="#5C3FBF"></path>
    </g>
</svg>